<svg xmlns="http://www.w3.org/2000/svg" viewBox="0 0 81.01 81.03"><defs><style>.cls-1{fill:#efb810;}.cls-2{fill:#fff;}</style></defs><g id="Layer_2" data-name="Layer 2"><g id="Layer_1-2" data-name="Layer 1"><path class="cls-1" d="M81,40.28C81.57,63.55,63,81.09,40.56,81S-.54,63.51,0,38.76C.44,19.61,17.57-2.06,44.74.16,63,1.64,82,18.65,81,40.28Z"/><path class="cls-2" d="M32,56.73c0-4.09-.16-8.18,0-12.25.13-2.5-.69-3.49-3.13-3C26,42,25,40.8,25.38,37.88a23.73,23.73,0,0,0,0-5.65c-.39-3.47.1-5.87,4.49-5,2.1.42,2.11-1,2.19-2.54.12-2.62-.42-5.23.43-7.86C34.61,10.25,40,9.06,45.8,8.39a20.45,20.45,0,0,1,2.35,0c7.47,0,7.19,0,7.56,7.62.2,4.07-1.09,5.23-4.9,4.72-1.45-.2-3.38-.79-4.45.49a5.64,5.64,0,0,0-1.1,4.85c.49,2.18,2.29,1.11,3.44,1.15,7.51.24,7.51.19,6,7.51a2.49,2.49,0,0,0,0,.94c1,5.1-1.37,6.64-6,5.76-3.14-.6-3.53,1-3.48,3.67.16,8,0,16,.11,24,0,2.44-.28,3.53-3.19,3.56C32,72.76,32,72.9,32,62.85Z"/></g></g></svg>