<svg xmlns="http://www.w3.org/2000/svg" viewBox="0 0 80.71 81.29"><defs><style>.cls-1{fill:#efb810;}.cls-2{fill:#fff;}</style></defs><g id="Layer_2" data-name="Layer 2"><g id="Layer_1-2" data-name="Layer 1"><path class="cls-1" d="M80.65,40.57C81.88,64.16,62.84,81.5,40.41,81.29S0,64.57,0,40.72,17.62.33,40.25,0C62.55-.31,81.8,16.88,80.65,40.57Z"/><path class="cls-2" d="M13.75,40.17c0-3.82-.1-7.64,0-11.46a15.73,15.73,0,0,1,15.06-15c7.82-.13,15.64-.1,23.46,0A15.74,15.74,0,0,1,67.66,29.41q.09,11.21,0,22.43A15.77,15.77,0,0,1,51.84,67.57q-11.23.08-22.46,0A15.75,15.75,0,0,1,13.76,52.14C13.69,48.15,13.75,44.16,13.75,40.17Z"/><path class="cls-1" d="M19.74,40.37c0-3.16,0-6.32,0-9.48,0-6.9,4.37-11.17,11.4-11.19,6.65,0,13.3,0,20,0a10.55,10.55,0,0,1,10.57,10.5c0,7,.06,14,0,20.94A10.5,10.5,0,0,1,51,61.58q-10.48.08-21,0A10.63,10.63,0,0,1,19.75,51.33C19.69,47.68,19.74,44,19.74,40.37Z"/><path class="cls-2" d="M27.73,40.52c-.61-9.91,7.19-13.61,13.63-13.62,7.17,0,13.38,5.3,13.22,14.41-.15,8.09-6.36,13.21-14,13.09C33.59,54.29,27.09,49.6,27.73,40.52Z"/><path class="cls-2" d="M54.7,22.74c2,.72,4,2,3.81,4.19a3.83,3.83,0,0,1-7.64-.5C51,24.57,52.7,23.24,54.7,22.74Z"/><path class="cls-1" d="M48.7,40.87c-.09,3.67-4.61,7.93-8.23,7.75-3.43-.17-7.87-4.89-7.69-8.2.18-3.48,4.81-8,8.13-7.72C44.05,33,49.39,36.48,48.7,40.87Z"/></g></g></svg>