<svg xmlns="http://www.w3.org/2000/svg" viewBox="0 0 80.71 81.29"><defs><style>.cls-1{fill:#efb810;}.cls-2{fill:#fff;}</style></defs><g id="Layer_2" data-name="Layer 2"><g id="Layer_1-2" data-name="Layer 1"><path class="cls-1" d="M80.65,40.57C81.88,64.16,62.84,81.5,40.41,81.29S0,64.57,0,40.72,17.62.33,40.25,0C62.55-.31,81.8,16.88,80.65,40.57Z"/><path class="cls-2" d="M11.33,59.12a21.6,21.6,0,0,0,15.85-4,8.28,8.28,0,0,1-8.51-5.19c-1.32-3.66-3.23-6.84-4.88-10.24-.6-1.23-1.48-4.44,2.32-4-3.37-5.27-3.52-10.16-.61-14.13C21,27.49,27.47,31.62,35.59,33c1.48.24,2.34.06,2.65-2C39.76,20.35,48.85,16.18,57.9,22c3.47,2.23,5-2.3,8.14-.89.68,1.29-1.26,2.37-1.45,3.92,1,.6,2,.47,3.12-1-.26,3.08-1.59,4.91-3.32,5.73-2.67,1.26-2.48,3.41-2.57,5.54a31.28,31.28,0,0,1-24.1,29,38.64,38.64,0,0,1-23-2C13.44,61.8,11.88,61.23,11.33,59.12Z"/></g></g></svg>